<mxfile host="Electron" modified="2023-10-25T02:51:34.148Z" agent="Mozilla/5.0 (Windows NT 10.0; Win64; x64) AppleWebKit/537.36 (KHTML, like Gecko) draw.io/22.0.2 Chrome/114.0.5735.289 Electron/25.8.4 Safari/537.36" etag="9qOK7FJpvKi2fPAhMsi3" version="22.0.2" type="device">
  <diagram name="Page-1" id="0783ab3e-0a74-02c8-0abd-f7b4e66b4bec">
    <mxGraphModel dx="1050" dy="629" grid="1" gridSize="10" guides="1" tooltips="1" connect="1" arrows="1" fold="1" page="1" pageScale="1" pageWidth="850" pageHeight="1100" background="none" math="0" shadow="0">
      <root>
        <mxCell id="0" />
        <mxCell id="1" parent="0" />
        <mxCell id="1c1d494c118603dd-1" value="Замовлення перевезення" style="swimlane;html=1;childLayout=stackLayout;startSize=20;rounded=0;shadow=0;comic=0;labelBackgroundColor=none;strokeWidth=1;fontFamily=Verdana;fontSize=12;align=center;" parent="1" vertex="1">
          <mxGeometry x="40" y="20" width="750" height="1340" as="geometry">
            <mxRectangle x="40" y="20" width="70" height="30" as="alternateBounds" />
          </mxGeometry>
        </mxCell>
        <mxCell id="1c1d494c118603dd-2" value="Диспетчер" style="swimlane;html=1;startSize=20;" parent="1c1d494c118603dd-1" vertex="1">
          <mxGeometry y="20" width="250" height="1320" as="geometry" />
        </mxCell>
        <mxCell id="SK06pr9iCSMfBcMyuEG0-80" style="edgeStyle=orthogonalEdgeStyle;rounded=0;orthogonalLoop=1;jettySize=auto;html=1;exitX=0.5;exitY=1;exitDx=0;exitDy=0;" parent="1c1d494c118603dd-2" source="SK06pr9iCSMfBcMyuEG0-78" target="SK06pr9iCSMfBcMyuEG0-79" edge="1">
          <mxGeometry relative="1" as="geometry" />
        </mxCell>
        <mxCell id="SK06pr9iCSMfBcMyuEG0-78" value="Обробити запит" style="rounded=1;whiteSpace=wrap;html=1;shadow=0;comic=0;labelBackgroundColor=none;strokeWidth=1;fontFamily=Verdana;fontSize=12;align=center;arcSize=50;" parent="1c1d494c118603dd-2" vertex="1">
          <mxGeometry x="60" y="870" width="130" height="70" as="geometry" />
        </mxCell>
        <mxCell id="SK06pr9iCSMfBcMyuEG0-87" style="edgeStyle=orthogonalEdgeStyle;rounded=0;orthogonalLoop=1;jettySize=auto;html=1;entryX=0.5;entryY=0;entryDx=0;entryDy=0;" parent="1c1d494c118603dd-2" source="SK06pr9iCSMfBcMyuEG0-79" target="SK06pr9iCSMfBcMyuEG0-84" edge="1">
          <mxGeometry relative="1" as="geometry">
            <Array as="points">
              <mxPoint x="60" y="990" />
            </Array>
          </mxGeometry>
        </mxCell>
        <mxCell id="SK06pr9iCSMfBcMyuEG0-88" style="edgeStyle=orthogonalEdgeStyle;rounded=0;orthogonalLoop=1;jettySize=auto;html=1;exitX=1;exitY=0.5;exitDx=0;exitDy=0;entryX=0.5;entryY=0;entryDx=0;entryDy=0;" parent="1c1d494c118603dd-2" source="SK06pr9iCSMfBcMyuEG0-79" target="SK06pr9iCSMfBcMyuEG0-85" edge="1">
          <mxGeometry relative="1" as="geometry" />
        </mxCell>
        <mxCell id="SK06pr9iCSMfBcMyuEG0-79" value="" style="rhombus;" parent="1c1d494c118603dd-2" vertex="1">
          <mxGeometry x="110" y="960" width="30" height="40" as="geometry" />
        </mxCell>
        <mxCell id="SK06pr9iCSMfBcMyuEG0-82" value="[Відхилено]" style="text;html=1;strokeColor=none;fillColor=none;align=center;verticalAlign=middle;whiteSpace=wrap;rounded=0;" parent="1c1d494c118603dd-2" vertex="1">
          <mxGeometry x="50" y="940" width="60" height="30" as="geometry" />
        </mxCell>
        <mxCell id="SK06pr9iCSMfBcMyuEG0-83" value="[Прийнято]" style="text;html=1;strokeColor=none;fillColor=none;align=center;verticalAlign=middle;whiteSpace=wrap;rounded=0;" parent="1c1d494c118603dd-2" vertex="1">
          <mxGeometry x="140" y="940" width="60" height="30" as="geometry" />
        </mxCell>
        <mxCell id="SK06pr9iCSMfBcMyuEG0-89" style="edgeStyle=orthogonalEdgeStyle;rounded=0;orthogonalLoop=1;jettySize=auto;html=1;exitX=0.5;exitY=1;exitDx=0;exitDy=0;entryX=0;entryY=0.5;entryDx=0;entryDy=0;" parent="1c1d494c118603dd-2" source="SK06pr9iCSMfBcMyuEG0-84" target="SK06pr9iCSMfBcMyuEG0-86" edge="1">
          <mxGeometry relative="1" as="geometry" />
        </mxCell>
        <mxCell id="SK06pr9iCSMfBcMyuEG0-84" value="Виставити статус &quot;Відхилено&quot;" style="rounded=1;whiteSpace=wrap;html=1;shadow=0;comic=0;labelBackgroundColor=none;strokeWidth=1;fontFamily=Verdana;fontSize=12;align=center;arcSize=50;" parent="1c1d494c118603dd-2" vertex="1">
          <mxGeometry x="10" y="1010" width="100" height="50" as="geometry" />
        </mxCell>
        <mxCell id="SK06pr9iCSMfBcMyuEG0-90" style="edgeStyle=orthogonalEdgeStyle;rounded=0;orthogonalLoop=1;jettySize=auto;html=1;entryX=1;entryY=0.5;entryDx=0;entryDy=0;" parent="1c1d494c118603dd-2" source="SK06pr9iCSMfBcMyuEG0-85" target="SK06pr9iCSMfBcMyuEG0-86" edge="1">
          <mxGeometry relative="1" as="geometry" />
        </mxCell>
        <mxCell id="SK06pr9iCSMfBcMyuEG0-85" value="Виставити статус &quot;Прийнято&quot;" style="rounded=1;whiteSpace=wrap;html=1;shadow=0;comic=0;labelBackgroundColor=none;strokeWidth=1;fontFamily=Verdana;fontSize=12;align=center;arcSize=50;" parent="1c1d494c118603dd-2" vertex="1">
          <mxGeometry x="140" y="1010" width="100" height="50" as="geometry" />
        </mxCell>
        <mxCell id="SK06pr9iCSMfBcMyuEG0-86" value="" style="rhombus;" parent="1c1d494c118603dd-2" vertex="1">
          <mxGeometry x="110" y="1070" width="30" height="40" as="geometry" />
        </mxCell>
        <mxCell id="1c1d494c118603dd-3" value="Система" style="swimlane;html=1;startSize=20;" parent="1c1d494c118603dd-1" vertex="1">
          <mxGeometry x="250" y="20" width="250" height="1320" as="geometry" />
        </mxCell>
        <mxCell id="SK06pr9iCSMfBcMyuEG0-2" value="Поля зробити доступними" style="rounded=1;whiteSpace=wrap;html=1;shadow=0;comic=0;labelBackgroundColor=none;strokeWidth=1;fontFamily=Verdana;fontSize=12;align=center;arcSize=50;" parent="1c1d494c118603dd-3" vertex="1">
          <mxGeometry x="57.5" y="115.5" width="135" height="49" as="geometry" />
        </mxCell>
        <mxCell id="SK06pr9iCSMfBcMyuEG0-9" style="edgeStyle=orthogonalEdgeStyle;rounded=0;orthogonalLoop=1;jettySize=auto;html=1;entryX=0.5;entryY=0;entryDx=0;entryDy=0;" parent="1c1d494c118603dd-3" source="SK06pr9iCSMfBcMyuEG0-5" target="SK06pr9iCSMfBcMyuEG0-7" edge="1">
          <mxGeometry relative="1" as="geometry">
            <Array as="points">
              <mxPoint x="125" y="260" />
              <mxPoint x="88" y="260" />
            </Array>
          </mxGeometry>
        </mxCell>
        <mxCell id="SK06pr9iCSMfBcMyuEG0-10" style="edgeStyle=orthogonalEdgeStyle;rounded=0;orthogonalLoop=1;jettySize=auto;html=1;entryX=0.5;entryY=0;entryDx=0;entryDy=0;" parent="1c1d494c118603dd-3" source="SK06pr9iCSMfBcMyuEG0-5" target="SK06pr9iCSMfBcMyuEG0-8" edge="1">
          <mxGeometry relative="1" as="geometry">
            <Array as="points">
              <mxPoint x="125" y="260" />
              <mxPoint x="200" y="260" />
              <mxPoint x="200" y="350" />
              <mxPoint x="125" y="350" />
            </Array>
          </mxGeometry>
        </mxCell>
        <mxCell id="SK06pr9iCSMfBcMyuEG0-5" value="" style="rhombus;" parent="1c1d494c118603dd-3" vertex="1">
          <mxGeometry x="110" y="204.5" width="30" height="40" as="geometry" />
        </mxCell>
        <mxCell id="SK06pr9iCSMfBcMyuEG0-11" style="edgeStyle=orthogonalEdgeStyle;rounded=0;orthogonalLoop=1;jettySize=auto;html=1;entryX=0.5;entryY=0;entryDx=0;entryDy=0;" parent="1c1d494c118603dd-3" source="SK06pr9iCSMfBcMyuEG0-7" target="SK06pr9iCSMfBcMyuEG0-8" edge="1">
          <mxGeometry relative="1" as="geometry">
            <Array as="points">
              <mxPoint x="87" y="350" />
              <mxPoint x="125" y="350" />
            </Array>
          </mxGeometry>
        </mxCell>
        <mxCell id="SK06pr9iCSMfBcMyuEG0-7" value="Додати поля для об&#39;єму та ваги" style="rounded=1;whiteSpace=wrap;html=1;shadow=0;comic=0;labelBackgroundColor=none;strokeWidth=1;fontFamily=Verdana;fontSize=12;align=center;arcSize=50;" parent="1c1d494c118603dd-3" vertex="1">
          <mxGeometry x="20" y="280" width="135" height="49" as="geometry" />
        </mxCell>
        <mxCell id="SK06pr9iCSMfBcMyuEG0-37" style="edgeStyle=orthogonalEdgeStyle;rounded=0;orthogonalLoop=1;jettySize=auto;html=1;exitX=0.5;exitY=1;exitDx=0;exitDy=0;entryX=0.5;entryY=0;entryDx=0;entryDy=0;" parent="1c1d494c118603dd-3" source="SK06pr9iCSMfBcMyuEG0-8" target="SK06pr9iCSMfBcMyuEG0-35" edge="1">
          <mxGeometry relative="1" as="geometry" />
        </mxCell>
        <mxCell id="SK06pr9iCSMfBcMyuEG0-8" value="" style="rhombus;" parent="1c1d494c118603dd-3" vertex="1">
          <mxGeometry x="110" y="368" width="30" height="40" as="geometry" />
        </mxCell>
        <mxCell id="SK06pr9iCSMfBcMyuEG0-13" value="[Не пасажирський]" style="text;html=1;align=center;verticalAlign=middle;resizable=0;points=[];autosize=1;strokeColor=none;fillColor=none;" parent="1c1d494c118603dd-3" vertex="1">
          <mxGeometry y="228" width="130" height="30" as="geometry" />
        </mxCell>
        <mxCell id="SK06pr9iCSMfBcMyuEG0-18" value="[Інакше]" style="text;html=1;align=center;verticalAlign=middle;resizable=0;points=[];autosize=1;strokeColor=none;fillColor=none;" parent="1c1d494c118603dd-3" vertex="1">
          <mxGeometry x="140" y="228" width="70" height="30" as="geometry" />
        </mxCell>
        <mxCell id="SK06pr9iCSMfBcMyuEG0-35" value="" style="whiteSpace=wrap;html=1;rounded=0;shadow=0;comic=0;labelBackgroundColor=none;strokeWidth=1;fillColor=#000000;fontFamily=Verdana;fontSize=12;align=center;rotation=0;" parent="1c1d494c118603dd-3" vertex="1">
          <mxGeometry x="51.5" y="422" width="147" height="10" as="geometry" />
        </mxCell>
        <mxCell id="SK06pr9iCSMfBcMyuEG0-45" value="Вивести вікно з календарем &lt;br&gt;та годинником" style="html=1;shape=mxgraph.infographic.ribbonSimple;notch1=27.2;notch2=0;align=center;verticalAlign=middle;fontSize=14;fontStyle=0;fillColor=#FFFFFF;whiteSpace=wrap;" parent="1c1d494c118603dd-3" vertex="1">
          <mxGeometry x="18.5" y="548" width="180" height="60" as="geometry" />
        </mxCell>
        <mxCell id="SK06pr9iCSMfBcMyuEG0-50" value="[Інакше]" style="text;html=1;align=center;verticalAlign=middle;resizable=0;points=[];autosize=1;strokeColor=none;fillColor=none;" parent="1c1d494c118603dd-3" vertex="1">
          <mxGeometry x="142" y="669" width="70" height="30" as="geometry" />
        </mxCell>
        <mxCell id="60571a20871a0731-5" value="" style="shape=mxgraph.bpmn.shape;html=1;verticalLabelPosition=bottom;labelBackgroundColor=#ffffff;verticalAlign=top;perimeter=ellipsePerimeter;outline=end;symbol=terminate;rounded=0;shadow=0;comic=0;strokeWidth=1;fontFamily=Verdana;fontSize=12;align=center;" parent="1c1d494c118603dd-3" vertex="1">
          <mxGeometry x="155" y="1250" width="40" height="40" as="geometry" />
        </mxCell>
        <mxCell id="SK06pr9iCSMfBcMyuEG0-102" style="edgeStyle=orthogonalEdgeStyle;rounded=0;orthogonalLoop=1;jettySize=auto;html=1;exitX=0.75;exitY=1;exitDx=0;exitDy=0;entryX=0.5;entryY=0;entryDx=0;entryDy=0;" parent="1c1d494c118603dd-3" source="SK06pr9iCSMfBcMyuEG0-60" target="SK06pr9iCSMfBcMyuEG0-67" edge="1">
          <mxGeometry relative="1" as="geometry" />
        </mxCell>
        <mxCell id="SK06pr9iCSMfBcMyuEG0-103" style="edgeStyle=orthogonalEdgeStyle;rounded=0;orthogonalLoop=1;jettySize=auto;html=1;exitX=0.25;exitY=1;exitDx=0;exitDy=0;" parent="1c1d494c118603dd-3" source="SK06pr9iCSMfBcMyuEG0-60" target="SK06pr9iCSMfBcMyuEG0-75" edge="1">
          <mxGeometry relative="1" as="geometry" />
        </mxCell>
        <mxCell id="SK06pr9iCSMfBcMyuEG0-60" value="" style="whiteSpace=wrap;html=1;rounded=0;shadow=0;comic=0;labelBackgroundColor=none;strokeWidth=1;fillColor=#000000;fontFamily=Verdana;fontSize=12;align=center;rotation=0;" parent="1c1d494c118603dd-3" vertex="1">
          <mxGeometry x="81.5" y="822" width="147" height="10" as="geometry" />
        </mxCell>
        <mxCell id="SK06pr9iCSMfBcMyuEG0-70" style="edgeStyle=orthogonalEdgeStyle;rounded=0;orthogonalLoop=1;jettySize=auto;html=1;entryX=0.5;entryY=0;entryDx=0;entryDy=0;" parent="1c1d494c118603dd-3" source="SK06pr9iCSMfBcMyuEG0-67" target="SK06pr9iCSMfBcMyuEG0-69" edge="1">
          <mxGeometry relative="1" as="geometry" />
        </mxCell>
        <mxCell id="SK06pr9iCSMfBcMyuEG0-67" value="Записати &lt;br&gt;замовлення&lt;br&gt;в БД" style="rounded=1;whiteSpace=wrap;html=1;shadow=0;comic=0;labelBackgroundColor=none;strokeWidth=1;fontFamily=Verdana;fontSize=12;align=center;arcSize=50;" parent="1c1d494c118603dd-3" vertex="1">
          <mxGeometry x="149" y="880" width="85" height="50" as="geometry" />
        </mxCell>
        <mxCell id="SK06pr9iCSMfBcMyuEG0-93" style="edgeStyle=orthogonalEdgeStyle;rounded=0;orthogonalLoop=1;jettySize=auto;html=1;entryX=0.5;entryY=0;entryDx=0;entryDy=0;" parent="1c1d494c118603dd-3" source="SK06pr9iCSMfBcMyuEG0-69" target="SK06pr9iCSMfBcMyuEG0-91" edge="1">
          <mxGeometry relative="1" as="geometry" />
        </mxCell>
        <mxCell id="SK06pr9iCSMfBcMyuEG0-69" value="Вивести замовлення в історію замовлень клієнта" style="rounded=1;whiteSpace=wrap;html=1;shadow=0;comic=0;labelBackgroundColor=none;strokeWidth=1;fontFamily=Verdana;fontSize=12;align=center;arcSize=50;" parent="1c1d494c118603dd-3" vertex="1">
          <mxGeometry x="68" y="970" width="174" height="50" as="geometry" />
        </mxCell>
        <mxCell id="SK06pr9iCSMfBcMyuEG0-75" value="Відправити запит диспетчеру" style="rounded=1;whiteSpace=wrap;html=1;shadow=0;comic=0;labelBackgroundColor=none;strokeWidth=1;fontFamily=Verdana;fontSize=12;align=center;arcSize=50;" parent="1c1d494c118603dd-3" vertex="1">
          <mxGeometry x="30" y="875" width="100" height="60" as="geometry" />
        </mxCell>
        <mxCell id="SK06pr9iCSMfBcMyuEG0-95" style="edgeStyle=orthogonalEdgeStyle;rounded=0;orthogonalLoop=1;jettySize=auto;html=1;entryX=0.5;entryY=0;entryDx=0;entryDy=0;exitX=0.5;exitY=1;exitDx=0;exitDy=0;" parent="1c1d494c118603dd-3" source="SK06pr9iCSMfBcMyuEG0-91" target="SK06pr9iCSMfBcMyuEG0-96" edge="1">
          <mxGeometry relative="1" as="geometry">
            <Array as="points">
              <mxPoint x="14" y="1170" />
              <mxPoint x="78" y="1170" />
            </Array>
          </mxGeometry>
        </mxCell>
        <mxCell id="SK06pr9iCSMfBcMyuEG0-91" value="" style="whiteSpace=wrap;html=1;rounded=0;shadow=0;comic=0;labelBackgroundColor=none;strokeWidth=1;fillColor=#000000;fontFamily=Verdana;fontSize=12;align=center;rotation=0;" parent="1c1d494c118603dd-3" vertex="1">
          <mxGeometry x="-60" y="1150" width="147" height="10" as="geometry" />
        </mxCell>
        <mxCell id="SK06pr9iCSMfBcMyuEG0-97" style="edgeStyle=orthogonalEdgeStyle;rounded=0;orthogonalLoop=1;jettySize=auto;html=1;entryX=0.5;entryY=0;entryDx=0;entryDy=0;" parent="1c1d494c118603dd-3" source="SK06pr9iCSMfBcMyuEG0-96" target="60571a20871a0731-5" edge="1">
          <mxGeometry relative="1" as="geometry" />
        </mxCell>
        <mxCell id="SK06pr9iCSMfBcMyuEG0-96" value="Перейти в меню замовлень" style="rounded=1;whiteSpace=wrap;html=1;shadow=0;comic=0;labelBackgroundColor=none;strokeWidth=1;fontFamily=Verdana;fontSize=12;align=center;arcSize=50;" parent="1c1d494c118603dd-3" vertex="1">
          <mxGeometry x="30" y="1190" width="95" height="50" as="geometry" />
        </mxCell>
        <mxCell id="1c1d494c118603dd-4" value="Клієнт" style="swimlane;html=1;startSize=20;" parent="1c1d494c118603dd-1" vertex="1">
          <mxGeometry x="500" y="20" width="250" height="1320" as="geometry" />
        </mxCell>
        <mxCell id="1c1d494c118603dd-27" style="edgeStyle=orthogonalEdgeStyle;rounded=0;html=1;labelBackgroundColor=none;startArrow=none;startFill=0;startSize=5;endArrow=classicThin;endFill=1;endSize=5;jettySize=auto;orthogonalLoop=1;strokeWidth=1;fontFamily=Verdana;fontSize=12" parent="1c1d494c118603dd-4" source="60571a20871a0731-4" target="60571a20871a0731-8" edge="1">
          <mxGeometry relative="1" as="geometry" />
        </mxCell>
        <mxCell id="60571a20871a0731-4" value="" style="ellipse;whiteSpace=wrap;html=1;rounded=0;shadow=0;comic=0;labelBackgroundColor=none;strokeWidth=1;fillColor=#000000;fontFamily=Verdana;fontSize=12;align=center;" parent="1c1d494c118603dd-4" vertex="1">
          <mxGeometry x="95" y="40" width="40" height="40" as="geometry" />
        </mxCell>
        <mxCell id="60571a20871a0731-8" value="Перейти в меню&lt;br&gt;&quot;Замовлення перевезень&quot;" style="rounded=1;whiteSpace=wrap;html=1;shadow=0;comic=0;labelBackgroundColor=none;strokeWidth=1;fontFamily=Verdana;fontSize=12;align=center;arcSize=50;" parent="1c1d494c118603dd-4" vertex="1">
          <mxGeometry x="35" y="110" width="160" height="60" as="geometry" />
        </mxCell>
        <mxCell id="SK06pr9iCSMfBcMyuEG0-4" value="Обрати тип замовлення" style="rounded=1;whiteSpace=wrap;html=1;shadow=0;comic=0;labelBackgroundColor=none;strokeWidth=1;fontFamily=Verdana;fontSize=12;align=center;arcSize=50;" parent="1c1d494c118603dd-4" vertex="1">
          <mxGeometry x="47.5" y="200" width="135" height="49" as="geometry" />
        </mxCell>
        <mxCell id="SK06pr9iCSMfBcMyuEG0-14" value="Ввести значення" style="rounded=1;whiteSpace=wrap;html=1;shadow=0;comic=0;labelBackgroundColor=none;strokeWidth=1;fontFamily=Verdana;fontSize=12;align=center;arcSize=50;" parent="1c1d494c118603dd-4" vertex="1">
          <mxGeometry x="35" y="499" width="135" height="49" as="geometry" />
        </mxCell>
        <mxCell id="SK06pr9iCSMfBcMyuEG0-42" value="Натиснути на поле&lt;br style=&quot;border-color: var(--border-color);&quot;&gt;з датою" style="html=1;shape=mxgraph.infographic.ribbonSimple;notch1=0;notch2=20;align=center;verticalAlign=middle;fontSize=14;fontStyle=0;fillColor=#FFFFFF;whiteSpace=wrap;" parent="1c1d494c118603dd-4" vertex="1">
          <mxGeometry x="35" y="431" width="160" height="40" as="geometry" />
        </mxCell>
        <mxCell id="SK06pr9iCSMfBcMyuEG0-32" style="edgeStyle=orthogonalEdgeStyle;rounded=0;orthogonalLoop=1;jettySize=auto;html=1;exitX=0.25;exitY=0;exitDx=0;exitDy=0;entryX=0.33;entryY=0.996;entryDx=0;entryDy=0;entryPerimeter=0;" parent="1c1d494c118603dd-4" source="SK06pr9iCSMfBcMyuEG0-29" target="SK06pr9iCSMfBcMyuEG0-14" edge="1">
          <mxGeometry relative="1" as="geometry">
            <mxPoint x="78.75" y="610" as="targetPoint" />
            <Array as="points">
              <mxPoint x="-205" y="642" />
              <mxPoint x="80" y="642" />
            </Array>
          </mxGeometry>
        </mxCell>
        <mxCell id="SK06pr9iCSMfBcMyuEG0-29" value="Вивести повідомлення про помилку" style="rounded=1;whiteSpace=wrap;html=1;shadow=0;comic=0;labelBackgroundColor=none;strokeWidth=1;fontFamily=Verdana;fontSize=12;align=center;arcSize=50;" parent="1c1d494c118603dd-4" vertex="1">
          <mxGeometry x="-230" y="714" width="100" height="70" as="geometry" />
        </mxCell>
        <mxCell id="SK06pr9iCSMfBcMyuEG0-31" value="[Значення&lt;br&gt;некоректні]" style="text;html=1;align=center;verticalAlign=middle;resizable=0;points=[];autosize=1;strokeColor=none;fillColor=none;" parent="1c1d494c118603dd-4" vertex="1">
          <mxGeometry x="-211" y="652" width="90" height="40" as="geometry" />
        </mxCell>
        <mxCell id="SK06pr9iCSMfBcMyuEG0-63" style="edgeStyle=orthogonalEdgeStyle;rounded=0;orthogonalLoop=1;jettySize=auto;html=1;exitX=1;exitY=0.5;exitDx=0;exitDy=0;entryX=0.5;entryY=1;entryDx=0;entryDy=0;" parent="1c1d494c118603dd-4" source="SK06pr9iCSMfBcMyuEG0-16" target="SK06pr9iCSMfBcMyuEG0-62" edge="1">
          <mxGeometry relative="1" as="geometry">
            <Array as="points">
              <mxPoint x="-100" y="709" />
            </Array>
          </mxGeometry>
        </mxCell>
        <mxCell id="SK06pr9iCSMfBcMyuEG0-16" value="" style="rhombus;" parent="1c1d494c118603dd-4" vertex="1">
          <mxGeometry x="-130" y="674" width="30" height="40" as="geometry" />
        </mxCell>
        <mxCell id="SK06pr9iCSMfBcMyuEG0-30" style="edgeStyle=orthogonalEdgeStyle;rounded=0;orthogonalLoop=1;jettySize=auto;html=1;entryX=0.5;entryY=0;entryDx=0;entryDy=0;" parent="1c1d494c118603dd-4" source="SK06pr9iCSMfBcMyuEG0-16" target="SK06pr9iCSMfBcMyuEG0-29" edge="1">
          <mxGeometry relative="1" as="geometry">
            <Array as="points">
              <mxPoint x="-180" y="690" />
            </Array>
          </mxGeometry>
        </mxCell>
        <mxCell id="SK06pr9iCSMfBcMyuEG0-17" style="edgeStyle=orthogonalEdgeStyle;rounded=0;orthogonalLoop=1;jettySize=auto;html=1;entryX=0.5;entryY=0;entryDx=0;entryDy=0;exitX=0.75;exitY=1;exitDx=0;exitDy=0;" parent="1c1d494c118603dd-4" source="SK06pr9iCSMfBcMyuEG0-14" target="SK06pr9iCSMfBcMyuEG0-16" edge="1">
          <mxGeometry relative="1" as="geometry">
            <mxPoint x="150" y="610" as="sourcePoint" />
            <Array as="points">
              <mxPoint x="136" y="660" />
              <mxPoint x="-115" y="660" />
            </Array>
          </mxGeometry>
        </mxCell>
        <mxCell id="SK06pr9iCSMfBcMyuEG0-48" value="Підтвердити&lt;br&gt;замовлення" style="rounded=1;whiteSpace=wrap;html=1;shadow=0;comic=0;labelBackgroundColor=none;strokeWidth=1;fontFamily=Verdana;fontSize=12;align=center;arcSize=50;" parent="1c1d494c118603dd-4" vertex="1">
          <mxGeometry x="70" y="692" width="100" height="70" as="geometry" />
        </mxCell>
        <mxCell id="SK06pr9iCSMfBcMyuEG0-64" style="edgeStyle=orthogonalEdgeStyle;rounded=0;orthogonalLoop=1;jettySize=auto;html=1;entryX=0;entryY=0.25;entryDx=0;entryDy=0;" parent="1c1d494c118603dd-4" source="SK06pr9iCSMfBcMyuEG0-62" target="SK06pr9iCSMfBcMyuEG0-48" edge="1">
          <mxGeometry relative="1" as="geometry" />
        </mxCell>
        <mxCell id="SK06pr9iCSMfBcMyuEG0-62" value="" style="whiteSpace=wrap;html=1;rounded=0;shadow=0;comic=0;labelBackgroundColor=none;strokeWidth=1;fillColor=#000000;fontFamily=Verdana;fontSize=12;align=center;rotation=90;" parent="1c1d494c118603dd-4" vertex="1">
          <mxGeometry x="-42" y="704" width="77" height="10" as="geometry" />
        </mxCell>
        <mxCell id="SK06pr9iCSMfBcMyuEG0-3" style="edgeStyle=orthogonalEdgeStyle;rounded=0;orthogonalLoop=1;jettySize=auto;html=1;entryX=1;entryY=0.5;entryDx=0;entryDy=0;" parent="1c1d494c118603dd-1" source="60571a20871a0731-8" target="SK06pr9iCSMfBcMyuEG0-2" edge="1">
          <mxGeometry relative="1" as="geometry" />
        </mxCell>
        <mxCell id="SK06pr9iCSMfBcMyuEG0-6" style="edgeStyle=orthogonalEdgeStyle;rounded=0;orthogonalLoop=1;jettySize=auto;html=1;entryX=1;entryY=0.5;entryDx=0;entryDy=0;" parent="1c1d494c118603dd-1" source="SK06pr9iCSMfBcMyuEG0-4" target="SK06pr9iCSMfBcMyuEG0-5" edge="1">
          <mxGeometry relative="1" as="geometry" />
        </mxCell>
        <mxCell id="SK06pr9iCSMfBcMyuEG0-12" style="edgeStyle=orthogonalEdgeStyle;rounded=0;orthogonalLoop=1;jettySize=auto;html=1;entryX=0.5;entryY=0;entryDx=0;entryDy=0;exitX=0.5;exitY=1;exitDx=0;exitDy=0;" parent="1c1d494c118603dd-1" source="SK06pr9iCSMfBcMyuEG0-2" target="SK06pr9iCSMfBcMyuEG0-4" edge="1">
          <mxGeometry relative="1" as="geometry">
            <Array as="points">
              <mxPoint x="375" y="200" />
              <mxPoint x="615" y="200" />
            </Array>
          </mxGeometry>
        </mxCell>
        <mxCell id="SK06pr9iCSMfBcMyuEG0-40" style="edgeStyle=orthogonalEdgeStyle;rounded=0;orthogonalLoop=1;jettySize=auto;html=1;entryX=0;entryY=0;entryDx=0;entryDy=20;entryPerimeter=0;exitX=0.75;exitY=1;exitDx=0;exitDy=0;" parent="1c1d494c118603dd-1" source="SK06pr9iCSMfBcMyuEG0-35" target="SK06pr9iCSMfBcMyuEG0-42" edge="1">
          <mxGeometry relative="1" as="geometry">
            <mxPoint x="525" y="510" as="targetPoint" />
            <Array as="points">
              <mxPoint x="412" y="470" />
              <mxPoint x="492" y="470" />
              <mxPoint x="492" y="471" />
            </Array>
          </mxGeometry>
        </mxCell>
        <mxCell id="SK06pr9iCSMfBcMyuEG0-43" style="edgeStyle=orthogonalEdgeStyle;rounded=0;orthogonalLoop=1;jettySize=auto;html=1;exitX=0.25;exitY=1;exitDx=0;exitDy=0;entryX=0;entryY=0.5;entryDx=0;entryDy=0;" parent="1c1d494c118603dd-1" source="SK06pr9iCSMfBcMyuEG0-35" target="SK06pr9iCSMfBcMyuEG0-14" edge="1">
          <mxGeometry relative="1" as="geometry" />
        </mxCell>
        <mxCell id="SK06pr9iCSMfBcMyuEG0-46" style="edgeStyle=orthogonalEdgeStyle;rounded=0;orthogonalLoop=1;jettySize=auto;html=1;" parent="1c1d494c118603dd-1" source="SK06pr9iCSMfBcMyuEG0-42" edge="1">
          <mxGeometry relative="1" as="geometry">
            <mxPoint x="449" y="610" as="targetPoint" />
            <Array as="points">
              <mxPoint x="720" y="510" />
              <mxPoint x="720" y="610" />
            </Array>
          </mxGeometry>
        </mxCell>
        <mxCell id="SK06pr9iCSMfBcMyuEG0-47" style="edgeStyle=orthogonalEdgeStyle;rounded=0;orthogonalLoop=1;jettySize=auto;html=1;exitX=0;exitY=0;exitDx=180;exitDy=0;exitPerimeter=0;entryX=0.043;entryY=0.82;entryDx=0;entryDy=0;entryPerimeter=0;" parent="1c1d494c118603dd-1" source="SK06pr9iCSMfBcMyuEG0-45" target="SK06pr9iCSMfBcMyuEG0-14" edge="1">
          <mxGeometry relative="1" as="geometry">
            <Array as="points">
              <mxPoint x="470" y="580" />
              <mxPoint x="470" y="580" />
            </Array>
          </mxGeometry>
        </mxCell>
        <mxCell id="SK06pr9iCSMfBcMyuEG0-61" style="edgeStyle=orthogonalEdgeStyle;rounded=0;orthogonalLoop=1;jettySize=auto;html=1;entryX=0.5;entryY=0;entryDx=0;entryDy=0;" parent="1c1d494c118603dd-1" source="SK06pr9iCSMfBcMyuEG0-48" target="SK06pr9iCSMfBcMyuEG0-60" edge="1">
          <mxGeometry relative="1" as="geometry">
            <Array as="points">
              <mxPoint x="620" y="790" />
              <mxPoint x="405" y="790" />
            </Array>
          </mxGeometry>
        </mxCell>
        <mxCell id="SK06pr9iCSMfBcMyuEG0-81" style="edgeStyle=orthogonalEdgeStyle;rounded=0;orthogonalLoop=1;jettySize=auto;html=1;entryX=1;entryY=0.5;entryDx=0;entryDy=0;" parent="1c1d494c118603dd-1" source="SK06pr9iCSMfBcMyuEG0-75" target="SK06pr9iCSMfBcMyuEG0-78" edge="1">
          <mxGeometry relative="1" as="geometry" />
        </mxCell>
        <mxCell id="SK06pr9iCSMfBcMyuEG0-92" style="edgeStyle=orthogonalEdgeStyle;rounded=0;orthogonalLoop=1;jettySize=auto;html=1;entryX=0.25;entryY=0;entryDx=0;entryDy=0;" parent="1c1d494c118603dd-1" source="SK06pr9iCSMfBcMyuEG0-86" target="SK06pr9iCSMfBcMyuEG0-91" edge="1">
          <mxGeometry relative="1" as="geometry">
            <Array as="points">
              <mxPoint x="125" y="1150" />
              <mxPoint x="227" y="1150" />
            </Array>
          </mxGeometry>
        </mxCell>
      </root>
    </mxGraphModel>
  </diagram>
</mxfile>
